<?xml version="1.0" encoding="utf-8"?>
<!-- Generator: Adobe Illustrator 16.0.0, SVG Export Plug-In . SVG Version: 6.00 Build 0)  -->
<!DOCTYPE svg PUBLIC "-//W3C//DTD SVG 1.1//EN" "http://www.w3.org/Graphics/SVG/1.1/DTD/svg11.dtd">
<svg version="1.1" id="Camada_1" xmlns="http://www.w3.org/2000/svg" xmlns:xlink="http://www.w3.org/1999/xlink" x="0px" y="0px"
	 width="512px" height="144px" viewBox="0 34.553 512 144" enable-background="new 0 34.553 512 144" xml:space="preserve">
<g>
	<path fill="#B4B3B5" d="M470.76,174.513l10.022-14.826h1.939l10.104,14.826h-3.301l-2.562-3.769h-10.4l-2.543,3.769H470.76z
		 M477.902,168.789h7.699l-3.826-5.684L477.902,168.789z M464.62,174.513V159.65h3.118v14.863H464.62z M459.395,170.886
		c-1.121,1.33-2.593,2.341-4.418,3.041c-1.819,0.7-3.899,1.051-6.221,1.051c-3.458,0-6.307-0.74-8.551-2.213
		c-2.234-1.478-3.354-3.351-3.354-5.614c0-2.269,1.119-4.142,3.354-5.628c2.244-1.487,5.093-2.228,8.551-2.228
		c2.156,0,4.107,0.3,5.862,0.913c1.759,0.602,3.167,1.46,4.245,2.569l-2.447,1.282c-0.813-0.844-1.884-1.495-3.214-1.953
		s-2.813-0.681-4.442-0.681c-2.525,0-4.61,0.541-6.265,1.625c-1.654,1.078-2.48,2.436-2.48,4.065c0,1.631,0.826,2.986,2.49,4.066
		c1.66,1.084,3.745,1.623,6.255,1.623c1.751,0,3.302-0.256,4.641-0.775c1.338-0.521,2.511-1.325,3.525-2.423L459.395,170.886z
		 M414.659,174.513v-14.826h1.613l12.511,10.418v-10.418h3.021v14.826h-1.613l-12.511-10.382v10.382H414.659z M393.918,157.375
		l4.622-6.084h3.51l4.623,6.084h-2.125l-4.249-4.587l-4.253,4.587H393.918z M390.894,174.513v-14.826h18.473v2.168h-15.402v3.698
		h10.111v2.135h-10.111v4.693h16.249v2.132H390.894L390.894,174.513z M375.33,161.818h-5.7v10.563h5.7
		c2.335,0,4.181-0.477,5.519-1.417c1.337-0.943,2.006-2.227,2.006-3.848c0-1.563-0.694-2.836-2.077-3.821
		C379.39,162.309,377.579,161.818,375.33,161.818z M375.281,159.685c3.222,0,5.814,0.696,7.79,2.073
		c1.967,1.385,2.95,3.18,2.95,5.393c0,2.232-0.968,4.019-2.896,5.358c-1.928,1.331-4.544,2-7.845,2h-8.723v-14.824H375.281z
		 M356.59,174.513V159.65h3.119v14.863H356.59z M342.835,174.513h-1.589l-9.889-14.826h3.277l7.398,11.097l7.292-11.097h3.385
		L342.835,174.513z M310.523,174.513v-14.826h18.472v2.168h-15.401v3.698h10.109v2.135h-10.109v4.693h16.251v2.132H310.523
		L310.523,174.513z M288.039,168.041v6.472h-3.07V159.72h13.543c2.015,0,3.593,0.37,4.733,1.098
		c1.141,0.727,1.711,1.743,1.711,3.042c0,1.05-0.452,1.959-1.357,2.73c-0.896,0.771-2.069,1.243-3.519,1.416l5.486,6.503h-3.343
		l-5.59-6.472h-8.595V168.041z M288.039,165.873h10.469c1.063,0,1.877-0.173,2.436-0.522c0.559-0.351,0.842-0.851,0.842-1.499
		c0-0.646-0.283-1.142-0.842-1.479c-0.559-0.347-1.373-0.518-2.436-0.518h-10.469V165.873z M258.394,174.513v-19.167h14.611
		c2.475,0,4.419,0.462,5.835,1.389c1.424,0.923,2.137,2.191,2.137,3.798c0,1.665-0.688,3.016-2.063,4.043
		c-1.371,1.03-3.205,1.546-5.491,1.546h-11.861v8.392H258.394z M261.561,163.879h11.242c1.6,0,2.811-0.266,3.633-0.799
		c0.826-0.529,1.233-1.311,1.233-2.345c0-0.999-0.407-1.786-1.233-2.345c-0.822-0.561-1.977-0.842-3.474-0.842h-11.401V163.879
		L261.561,163.879z M218.619,174.513v-14.826h18.469v2.168h-15.399v3.698h10.108v2.135h-10.108v4.693h16.25v2.132H218.619
		L218.619,174.513z M177.798,172.615l1.496-1.941c1.354,0.679,2.836,1.216,4.434,1.592c1.605,0.388,3.132,0.574,4.598,0.574
		c1.755,0,3.173-0.266,4.251-0.805c1.079-0.539,1.613-1.224,1.613-2.065c0-0.85-0.494-1.472-1.479-1.889
		c-0.985-0.405-2.539-0.629-4.661-0.681c-3.592-0.035-6.053-0.35-7.392-0.936c-1.338-0.595-2.007-1.572-2.007-2.934
		c0-1.276,0.729-2.299,2.204-3.074c1.472-0.779,3.447-1.161,5.927-1.161c1.694,0,3.332,0.178,4.929,0.539
		c1.591,0.356,3.125,0.89,4.607,1.594l-1.551,1.92c-1.227-0.622-2.55-1.102-3.969-1.448c-1.417-0.334-2.771-0.507-4.065-0.507
		c-1.494,0-2.699,0.192-3.604,0.586c-0.907,0.396-1.362,0.905-1.362,1.542c0,0.657,0.457,1.125,1.37,1.404
		c0.912,0.277,2.505,0.413,4.763,0.413c3.143,0,5.503,0.396,7.101,1.2c1.6,0.799,2.402,1.983,2.402,3.561
		c0,1.398-0.811,2.562-2.434,3.49c-1.624,0.924-3.725,1.389-6.306,1.389c-1.911,0-3.802-0.213-5.694-0.62
		C181.091,173.948,179.365,173.368,177.798,172.615z M162.398,174.978c-3.503,0-6.392-0.748-8.654-2.243
		c-2.259-1.484-3.393-3.359-3.393-5.618c0-2.266,1.125-4.135,3.377-5.613c2.26-1.474,5.147-2.208,8.668-2.208
		c3.551,0,6.458,0.732,8.714,2.204c2.254,1.467,3.378,3.34,3.378,5.617c0,2.271-1.132,4.144-3.395,5.63
		C168.835,174.234,165.939,174.978,162.398,174.978z M162.398,172.806c2.628,0,4.779-0.533,6.439-1.605
		c1.663-1.066,2.488-2.432,2.488-4.084c0-1.641-0.836-2.997-2.503-4.075c-1.67-1.07-3.809-1.613-6.424-1.613
		c-2.613,0-4.747,0.533-6.402,1.607c-1.651,1.063-2.478,2.429-2.478,4.081s0.826,3.018,2.478,4.084
		C157.649,172.273,159.782,172.806,162.398,172.806z M129.566,168.041v6.472h-3.07V159.72h13.543c2.014,0,3.589,0.37,4.732,1.098
		c1.142,0.727,1.707,1.743,1.707,3.042c0,1.05-0.446,1.959-1.351,2.73c-0.898,0.771-2.071,1.243-3.521,1.416l5.489,6.503h-3.346
		l-5.59-6.472h-8.593V168.041z M129.566,165.873h10.473c1.061,0,1.873-0.173,2.433-0.522c0.558-0.351,0.842-0.851,0.842-1.499
		c0-0.646-0.284-1.142-0.842-1.479c-0.561-0.347-1.372-0.518-2.433-0.518h-10.473V165.873z M100.221,159.72h3.07v9.494
		c0,1.424,0.449,2.384,1.339,2.882c0.888,0.497,2.661,0.745,5.316,0.745c2.661,0,4.439-0.248,5.33-0.745
		c0.89-0.498,1.339-1.458,1.339-2.882v-9.494h3.07v10.1c0,1.817-0.763,3.13-2.291,3.942c-1.536,0.811-4.024,1.216-7.487,1.216
		c-3.44,0-5.92-0.397-7.425-1.198c-1.503-0.801-2.26-2.118-2.26-3.96v-10.1H100.221z M86.419,168.751v-2.134h8.126v4.475
		c-1.143,1.27-2.623,2.233-4.456,2.894c-1.827,0.657-3.953,0.992-6.369,0.992c-3.63,0-6.599-0.74-8.905-2.213
		c-2.307-1.478-3.465-3.351-3.465-5.614c0-2.269,1.159-4.142,3.481-5.628c2.322-1.489,5.284-2.228,8.89-2.228
		c2.274,0,4.29,0.294,6.053,0.882c1.762,0.592,3.229,1.459,4.394,2.601l-2.372,1.282c-0.834-0.818-1.96-1.468-3.377-1.934
		c-1.426-0.466-2.992-0.7-4.699-0.7c-2.691,0-4.897,0.541-6.622,1.613c-1.724,1.078-2.583,2.435-2.583,4.077
		c0,1.639,0.859,2.998,2.575,4.076c1.716,1.07,3.919,1.609,6.629,1.609c1.691,0,3.258-0.229,4.699-0.692
		c1.432-0.461,2.441-1.051,3.009-1.767v-1.594h-5.007V168.751z M49.336,174.513v-14.826h18.471v2.168H52.405v3.698h10.109v2.135
		H52.405v4.693h16.25v2.132H49.336L49.336,174.513z M19.175,171.625l1.843-2.056c1.803,1.049,3.676,1.85,5.622,2.406
		c1.946,0.551,3.874,0.826,5.779,0.826c2.353,0,4.267-0.374,5.731-1.125c1.473-0.752,2.203-1.72,2.203-2.896
		c0-0.94-0.527-1.71-1.583-2.312c-1.053-0.608-2.512-0.966-4.369-1.086c-0.45-0.037-1.095-0.073-1.937-0.101
		c-4.189-0.227-7.039-0.594-8.567-1.117c-1.18-0.429-2.086-0.983-2.699-1.66c-0.615-0.677-0.92-1.437-0.92-2.286
		c0-1.542,0.913-2.811,2.745-3.811c1.827-0.995,4.205-1.492,7.127-1.492c2.127,0,4.222,0.259,6.292,0.786
		c2.068,0.529,4.039,1.311,5.898,2.341l-1.845,1.995c-1.576-0.958-3.219-1.672-4.951-2.16c-1.733-0.478-3.511-0.722-5.338-0.722
		c-1.922,0-3.503,0.285-4.756,0.848c-1.242,0.563-1.865,1.269-1.865,2.116c0,0.331,0.102,0.64,0.298,0.919
		c0.198,0.277,0.512,0.545,0.921,0.789c1.047,0.586,3.308,0.966,6.789,1.127c1.597,0.071,2.841,0.144,3.716,0.227
		c2.583,0.216,4.628,0.838,6.139,1.872c1.505,1.031,2.26,2.294,2.26,3.797c0,1.79-1.031,3.266-3.102,4.422
		c-2.07,1.153-4.786,1.735-8.142,1.735c-2.534,0-4.896-0.279-7.07-0.83C23.213,173.624,21.142,172.777,19.175,171.625z"/>
	
		<linearGradient id="SVGID_1_" gradientUnits="userSpaceOnUse" x1="57.7029" y1="81.5867" x2="57.7029" y2="172.3459" gradientTransform="matrix(1 0 0 -1 -0.0151 211.8052)">
		<stop  offset="0" style="stop-color:#ABA8AB"/>
		<stop  offset="1" style="stop-color:#FFFFFF"/>
	</linearGradient>
	<path fill="url(#SVGID_1_)" d="M83.691,38.74L53.744,91.492L32.929,38.74H1.643l32.717,82.055
		c2.538,5.997,7.567,8.995,15.137,8.995c7.613,0,13.243-2.998,16.889-8.995l47.347-82.053H83.691V38.74z"/>
	
		<linearGradient id="SVGID_2_" gradientUnits="userSpaceOnUse" x1="8.9211" y1="127.5608" x2="104.5422" y2="127.5608" gradientTransform="matrix(1 0 0 -1 -0.0151 211.8052)">
		<stop  offset="0" style="stop-color:#ABA8AB"/>
		<stop  offset="1" style="stop-color:#FFFFFF"/>
	</linearGradient>
	<path fill="url(#SVGID_2_)" d="M86.693,43.866h18.137c-7.344,12.692-42.875,74.245-42.875,74.245
		c-2.675,4.481-6.643,6.512-12.457,6.512c-7.062,0-9.232-3.097-10.337-5.727c0,0-25.242-63.265-29.952-75.032h20.259
		c2.218,5.766,23.447,59.486,23.447,59.486S84.014,48.57,86.693,43.866"/>
	
		<linearGradient id="SVGID_3_" gradientUnits="userSpaceOnUse" x1="141.4358" y1="81.5867" x2="141.4358" y2="172.3459" gradientTransform="matrix(1 0 0 -1 -0.0151 211.8052)">
		<stop  offset="0" style="stop-color:#ABA8AB"/>
		<stop  offset="1" style="stop-color:#FFFFFF"/>
	</linearGradient>
	<path fill="url(#SVGID_3_)" d="M132.746,47.744L85.398,129.79h30l29.993-52.74l20.77,52.74h31.285L164.72,47.744
		c-2.485-6.006-7.563-9.004-15.13-9.004C142.022,38.74,136.348,41.738,132.746,47.744"/>
	
		<linearGradient id="SVGID_4_" gradientUnits="userSpaceOnUse" x1="93.8586" y1="127.5374" x2="190.2323" y2="127.5374" gradientTransform="matrix(1 0 0 -1 -0.0151 211.8052)">
		<stop  offset="0" style="stop-color:#ABA8AB"/>
		<stop  offset="1" style="stop-color:#FFFFFF"/>
	</linearGradient>
	<path fill="url(#SVGID_4_)" d="M137.134,50.37c2.672-4.428,6.641-6.458,12.458-6.458c7.061,0,9.274,3.09,10.384,5.718
		c0,0,25.195,63.224,29.904,74.993h-20.259c-2.22-5.727-23.399-59.439-23.399-59.439s-31.147,54.777-33.827,59.439H94.303
		C101.597,111.978,137.039,50.557,137.134,50.37"/>
	
		<linearGradient id="SVGID_5_" gradientUnits="userSpaceOnUse" x1="247.9866" y1="81.5837" x2="247.9866" y2="172.3453" gradientTransform="matrix(1 0 0 -1 -0.0151 211.8052)">
		<stop  offset="0" style="stop-color:#ABA8AB"/>
		<stop  offset="1" style="stop-color:#FFFFFF"/>
	</linearGradient>
	<path fill="url(#SVGID_5_)" d="M211.473,39.114l-5.676,56.478c-0.25,2.278-0.375,4.442-0.375,6.492
		c-0.039,17.366,8.718,26.469,26.217,27.339h56.483l2.399-25.337l-49.192-0.049c-5.54-0.545-8.267-3.46-8.26-8.744
		c0-0.084,0-0.169,0.002-0.256l5.63-55.923H211.473z"/>
	
		<linearGradient id="SVGID_6_" gradientUnits="userSpaceOnUse" x1="209.6829" y1="127.5354" x2="285.2424" y2="127.5354" gradientTransform="matrix(1 0 0 -1 -0.0151 211.8052)">
		<stop  offset="0" style="stop-color:#ABA8AB"/>
		<stop  offset="1" style="stop-color:#FFFFFF"/>
	</linearGradient>
	<path fill="url(#SVGID_6_)" d="M216.138,44.235c-0.79,7.801-5.221,51.916-5.221,51.916c-0.229,2.121-0.369,4.151-0.369,6.043
		c0,6.83,1.525,12.002,4.526,15.557c3.366,3.962,9.042,6.181,16.842,6.554h51.551c0.413-4.528,0.924-9.875,1.428-15.096
		c-8.855,0-43.842-0.047-43.842-0.047h-0.228c-8.077-0.832-12.923-5.996-12.923-13.888l0.044-0.504c0,0,4.156-41.396,5.082-50.533
		h-16.891V44.235z"/>
	
		<linearGradient id="SVGID_7_" gradientUnits="userSpaceOnUse" x1="350.5964" y1="81.5881" x2="350.5964" y2="172.3431" gradientTransform="matrix(1 0 0 -1 -0.0151 211.8052)">
		<stop  offset="0" style="stop-color:#ABA8AB"/>
		<stop  offset="1" style="stop-color:#FFFFFF"/>
	</linearGradient>
	<path fill="url(#SVGID_7_)" d="M302.574,84.704c-0.014,0.135-0.029,0.269-0.041,0.407c-1.218,11.96-0.721,21.552,1.479,28.779
		c0,0,0,0,0.006,0.004c0.003,0.017,0.007,0.034,0.015,0.052c3.367,10.996,10.701,16.492,21.996,16.492h0.165h42.644
		c18.416-0.37,28.338-16.197,29.761-47.53c3.299-29.991-5.399-44.947-25.992-44.771c-0.165,0.002-0.33,0.006-0.495,0.01
		l-34.972-0.049C317.012,38.233,305.522,53.791,302.574,84.704 M327.122,99.286c-0.386-0.779-0.574-2.274-0.57-4.483
		c0-2.508,0.244-5.923,0.71-10.235c0.879-8.168,2.122-13.385,3.645-15.692c2.35-5.03,6.323-7.706,11.953-8.166H362.2
		c4.244,0.415,7.376,1.934,9.365,4.611c1.528,1.857,2.287,5.455,2.287,10.78c0,2.081-0.113,4.426-0.348,7.033
		c-0.83,9.322-2.264,15.145-4.334,17.537c-1.707,3.419-4.709,5.402-9.007,5.858l-25.146,0.051
		C331.044,105.845,328.414,103.394,327.122,99.286"/>
	
		<linearGradient id="SVGID_8_" gradientUnits="userSpaceOnUse" x1="306.7087" y1="127.5374" x2="394.3647" y2="127.5374" gradientTransform="matrix(1 0 0 -1 -0.0151 211.8052)">
		<stop  offset="0" style="stop-color:#ABA8AB"/>
		<stop  offset="1" style="stop-color:#FFFFFF"/>
	</linearGradient>
	<path fill="url(#SVGID_8_)" d="M313.186,120.429c-5.444-6.051-7.294-17.865-5.539-35.166l0.047-0.053
		c3.962-41.76,23.165-41.947,29.446-41.994l35.067,0.047c0.244-0.004,0.488-0.004,0.732-0.004c6.683,0,11.613,1.847,14.999,5.547
		c5.445,6,7.344,17.299,5.538,33.547v0.181l-0.044,0.142c-1.895,42.175-19.058,42.498-24.597,42.636h-42.644
		c-0.078,0.008-0.153,0.008-0.229,0.008C320.311,125.32,316.141,123.702,313.186,120.429 M362.422,55.585h-19.795h-0.188
		c-7.314,0.549-12.881,4.316-16.048,10.776c0.074-0.118,0.153-0.232,0.224-0.344l-0.372,0.651c0.05-0.106,0.099-0.204,0.145-0.307
		c-1.346,2.172-2.979,6.328-4.253,17.608c-1.192,10.943-0.775,14.954,0.237,17.303c-0.049-0.155-0.096-0.305-0.142-0.458
		l0.277,0.736c-0.045-0.09-0.086-0.187-0.134-0.277c1.912,5.683,5.963,9.263,11.669,10.341l0.512,0.095l25.888-0.048l0.275-0.047
		c5.809-0.62,10.174-3.415,12.716-8.062c-0.146,0.189-0.292,0.37-0.445,0.543l0.744-1.109c-0.095,0.195-0.201,0.384-0.299,0.566
		c2.685-3.478,4.274-9.702,5.192-19.949c0.964-11.071,0.044-17.72-2.911-21.317c-2.953-3.922-7.333-6.14-13.056-6.696h-0.236V55.585
		z"/>
	
		<linearGradient id="SVGID_9_" gradientUnits="userSpaceOnUse" x1="461.3015" y1="81.5862" x2="461.3015" y2="172.3454" gradientTransform="matrix(1 0 0 -1 -0.0151 211.8052)">
		<stop  offset="0" style="stop-color:#ABA8AB"/>
		<stop  offset="1" style="stop-color:#FFFFFF"/>
	</linearGradient>
	<path fill="url(#SVGID_9_)" d="M421.259,39.224l-9.043,89.849l26.904-0.095l2.77-27.966l2.86-23.718l1.522-15.597h33.274
		c4.646,0.285,7.058,2.874,7.058,6.747c-0.008,0.512-0.047,1.049-0.132,1.607c-0.784,4.8-3.648,7.2-8.72,7.29l-22.201,0.047
		l22.335,51.917h28.016l-13.616-32.489c11.718-5.953,17.763-14.44,17.995-27.04c0.047-0.877,0.075-1.743,0.075-2.591
		c0.037-15.876-8.272-26.863-26.887-27.961H421.259z"/>
	
		<linearGradient id="SVGID_10_" gradientUnits="userSpaceOnUse" x1="416.49" y1="127.5168" x2="503.4724" y2="127.5168" gradientTransform="matrix(1 0 0 -1 -0.0151 211.8052)">
		<stop  offset="0" style="stop-color:#ABA8AB"/>
		<stop  offset="1" style="stop-color:#FFFFFF"/>
	</linearGradient>
	<path fill="url(#SVGID_10_)" d="M425.878,44.394h57.082c15.141,2.589,22.24,9.92,22.24,23.122c0,0.738,0,1.426-0.045,2.166
		c0,19.243-19.243,24.688-19.243,24.688s9.144,21.552,12.646,29.814h-17.306c-2.126-4.938-18.229-41.672-18.229-41.672l14.814-0.043
		c7.572-0.092,12.553-4.339,13.705-11.586c0.555-3.645-0.086-6.785-1.893-9.273c-1.979-2.677-5.114-4.337-9.313-4.987l-0.376-0.092
		h-38.348c0,0-6.505,60.871-7.152,67.327c-4.705,0-11.027,0.043-16.563,0.043C418.815,114.492,425.139,52.146,425.878,44.394"/>
</g>
</svg>
